<?xml version="1.0" encoding="iso-8859-1"?>
<!-- Uploaded to: SVG Repo, www.svgrepo.com, Generator: SVG Repo Mixer Tools -->
<svg height="800px" width="800px" version="1.1" id="Layer_1" xmlns="http://www.w3.org/2000/svg" xmlns:xlink="http://www.w3.org/1999/xlink" 
	 viewBox="0 0 511.984 511.984" xml:space="preserve">
<path style="fill:#DB2B42;" d="M0,409.616v-8.472c11.736-1.32,20.528-5.736,26.408-13.24c5.856-7.504,15.92-28.04,30.168-61.608
	L151.64,102.36h9.096l113.688,258.696c7.576,17.136,13.624,27.728,18.168,31.792c4.52,4.064,12.144,6.832,22.832,8.304v8.472
	H199.376v-8.472c13.336-1.176,21.928-2.624,25.792-4.32c3.856-1.704,5.792-5.872,5.792-12.528c0-2.208-0.744-6.136-2.224-11.752
	s-3.56-11.528-6.24-17.744l-18.264-43.888H83.96c-11.848,29.848-18.928,48.072-21.224,54.648
	c-2.304,6.568-3.456,11.776-3.456,15.624c0,7.688,3.112,13.008,9.352,15.968c3.848,1.776,11.112,3.104,21.792,3.984v8.472L0,409.616
	L0,409.616z M196.52,292.416l-52.296-125.672L91.696,292.416H196.52z"/>
<circle style="fill:#8AD5DD;" cx="400.56" cy="225.024" r="111.424"/>
<path style="fill:#FFFFFF;" d="M340.176,277.832v-3.368c4.664-0.528,8.16-2.28,10.488-5.264s6.328-11.136,11.984-24.48
	l37.768-88.968h3.616L449.2,258.528c3.008,6.808,5.416,11.016,7.216,12.632c1.8,1.616,4.824,2.712,9.072,3.296v3.368h-46.104v-3.36
	c5.296-0.472,8.712-1.04,10.248-1.72c1.536-0.68,2.296-2.336,2.296-4.976c0-0.88-0.296-2.44-0.888-4.672s-1.416-4.584-2.48-7.048
	l-7.256-17.44h-47.776c-4.712,11.856-7.52,19.096-8.432,21.712c-0.912,2.616-1.368,4.68-1.368,6.208
	c0,3.056,1.232,5.168,3.712,6.344c1.528,0.704,4.416,1.232,8.656,1.584v3.368h-35.92V277.832z M418.256,231.272l-20.776-49.928
	l-20.872,49.928H418.256z"/>
</svg>